<svg width="1920" height="1080" viewBox="0 0 1920 1080" fill="none" xmlns="http://www.w3.org/2000/svg">
<rect width="1920" height="1080" fill="#000348"/>
<path d="M1410.63 952.187C1410.63 942.626 1408.4 933.213 1404.12 924.662C1399.84 916.112 1393.59 908.704 1385.92 902.987L1407.87 970.416C1409.72 964.516 1410.65 958.368 1410.63 952.187Z" fill="#00F2FF"/>
<path d="M1465.82 867.434C1471.38 875.213 1478.67 881.578 1487.12 886.044C1495.58 890.511 1504.97 892.908 1514.53 893.099L1457.47 851C1459.4 856.872 1462.22 862.414 1465.82 867.434Z" fill="#00F2FF"/>
<path d="M1434.7 867.434C1429.14 875.213 1421.86 881.578 1413.4 886.044C1404.95 890.511 1395.56 892.908 1385.99 893.099L1443.06 851C1441.13 856.872 1438.31 862.414 1434.7 867.434Z" fill="#FFD000"/>
<path d="M1489.9 953.217C1489.9 959.398 1490.81 965.529 1492.64 971.445L1514.6 904.016C1506.93 909.733 1500.69 917.157 1496.41 925.708C1492.12 934.259 1489.88 943.688 1489.9 953.233V953.217Z" fill="#FFD000"/>
<path d="M1450.77 935.929L1407.03 907.105L1446.05 922.488C1449.08 923.683 1452.45 923.683 1455.49 922.489L1494.53 907.105L1450.77 935.929Z" fill="white"/>
<path d="M1419.38 966.298L1444.57 952.443C1448.43 950.32 1453.11 950.319 1456.97 952.442L1482.18 966.298L1450.77 935.929L1419.38 966.298Z" fill="white"/>
<path fill-rule="evenodd" clip-rule="evenodd" d="M1459.27 969.081C1449.81 967.583 1440.18 968.416 1431.08 971.514C1425.46 973.413 1420.12 976.166 1415.26 979.681H1484.82C1477.17 974.175 1468.45 970.534 1459.27 969.081Z" fill="#00F2FF"/>
<path d="M1461.42 903.836H1474.83V910.193H1453.65V885.487H1461.42V903.836Z" fill="white"/>
<path d="M1436.66 891.844H1428.64V885.487H1452.42V891.844H1444.41V910.193H1436.66V891.844Z" fill="white"/>
<path d="M1565.67 875.546H1553.99V866.272H1588.67V875.546H1576.98V902.312H1565.67V875.546ZM1616.23 889.444L1616.08 890.978H1596.2C1596.23 892.67 1596.61 893.91 1597.33 894.697C1598.07 895.485 1599.21 895.878 1600.77 895.878C1601.63 895.878 1602.39 895.694 1603.06 895.326C1603.73 894.957 1604.17 894.555 1604.39 894.119L1604.69 893.566H1615.65C1615.65 893.985 1615.5 894.588 1615.2 895.376C1614.63 896.817 1613.77 898.082 1612.61 899.171C1611.81 899.942 1610.9 900.578 1609.9 901.081C1608.91 901.584 1607.65 901.994 1606.13 902.312C1604.48 902.648 1602.7 902.815 1600.77 902.815C1596.08 902.815 1592.34 901.693 1589.54 899.447C1586.74 897.202 1585.34 893.868 1585.34 889.444C1585.34 885.055 1586.74 881.729 1589.54 879.467C1592.32 877.205 1596.07 876.074 1600.8 876.074C1605.51 876.074 1609.25 877.205 1612.03 879.467C1614.83 881.729 1616.23 885.055 1616.23 889.444ZM1600.77 882.759C1599.47 882.759 1598.43 883.111 1597.66 883.815C1596.89 884.518 1596.5 885.365 1596.5 886.353H1604.89C1604.89 885.415 1604.53 884.577 1603.79 883.84C1603.07 883.119 1602.06 882.759 1600.77 882.759ZM1622.73 899.422C1619.93 897.16 1618.53 893.834 1618.53 889.444C1618.53 885.055 1619.93 881.729 1622.73 879.467C1625.53 877.205 1629.27 876.074 1633.96 876.074C1638.37 876.074 1642.02 877.037 1644.92 878.964C1647.82 880.908 1649.27 883.714 1649.27 887.384H1638.08C1637.55 885.842 1636.17 885.071 1633.96 885.071C1632.55 885.071 1631.43 885.473 1630.59 886.278C1629.76 887.082 1629.34 888.138 1629.34 889.444C1629.34 890.751 1629.76 891.807 1630.59 892.611C1631.43 893.415 1632.55 893.818 1633.96 893.818C1636.17 893.818 1637.55 893.047 1638.08 891.505H1649.27C1649.27 895.158 1647.82 897.956 1644.92 899.9C1641.99 901.843 1638.34 902.815 1633.96 902.815C1629.27 902.815 1625.53 901.684 1622.73 899.422ZM1683.21 902.312H1672.93V889.897C1672.93 888.439 1672.5 887.275 1671.63 886.403C1670.75 885.515 1669.56 885.071 1668.03 885.071C1666.47 885.071 1665.27 885.507 1664.41 886.378C1663.57 887.233 1663.16 888.406 1663.16 889.897V902.312H1652.85V866.272H1663.16V881.201H1663.66C1663.78 880.799 1664.16 880.196 1664.81 879.391C1665.27 878.838 1665.82 878.327 1666.47 877.858C1667.19 877.372 1668.13 876.953 1669.29 876.602C1670.44 876.25 1671.66 876.074 1672.93 876.074C1676.12 876.074 1678.63 876.97 1680.47 878.763C1682.3 880.573 1683.21 883.279 1683.21 886.881V902.312ZM1699.69 893.038H1719.24V902.312H1688.35V866.272H1699.69V893.038ZM1749.59 889.444L1749.44 890.978H1729.56C1729.59 892.67 1729.97 893.91 1730.69 894.697C1731.43 895.485 1732.58 895.878 1734.13 895.878C1734.99 895.878 1735.75 895.694 1736.42 895.326C1737.09 894.957 1737.54 894.555 1737.75 894.119L1738.05 893.566H1749.01C1749.01 893.985 1748.86 894.588 1748.56 895.376C1747.99 896.817 1747.13 898.082 1745.97 899.171C1745.17 899.942 1744.26 900.578 1743.26 901.081C1742.27 901.584 1741.01 901.994 1739.49 902.312C1737.85 902.648 1736.06 902.815 1734.13 902.815C1729.44 902.815 1725.7 901.693 1722.9 899.447C1720.1 897.202 1718.7 893.868 1718.7 889.444C1718.7 885.055 1720.1 881.729 1722.9 879.467C1725.68 877.205 1729.43 876.074 1734.16 876.074C1738.87 876.074 1742.61 877.205 1745.39 879.467C1748.19 881.729 1749.59 885.055 1749.59 889.444ZM1734.13 882.759C1732.83 882.759 1731.79 883.111 1731.02 883.815C1730.25 884.518 1729.86 885.365 1729.86 886.353H1738.26C1738.26 885.415 1737.89 884.577 1737.15 883.84C1736.43 883.119 1735.42 882.759 1734.13 882.759ZM1752.14 894.848C1752.14 892.134 1753.19 890.123 1755.28 888.816C1757.38 887.526 1760.11 886.881 1763.48 886.881C1765.17 886.881 1766.68 887.023 1768 887.308C1769.28 887.576 1770.11 887.878 1770.52 888.213L1771.09 888.615V885.323C1771.09 884.552 1770.84 883.974 1770.34 883.588C1769.85 883.203 1768.99 883.01 1767.75 883.01C1765.49 883.01 1764.36 883.781 1764.36 885.323H1753.53C1753.53 882.29 1754.74 879.994 1757.17 878.436C1759.62 876.861 1763.14 876.074 1767.75 876.074C1772.38 876.074 1775.8 876.819 1778.03 878.311C1780.26 879.802 1781.37 882.139 1781.37 885.323V891.757C1781.37 892.561 1781.46 893.122 1781.65 893.441C1781.85 893.759 1782.19 893.918 1782.68 893.918L1783.43 893.818V902.312C1782.66 902.648 1781.3 902.815 1779.34 902.815C1777.19 902.815 1775.53 902.338 1774.34 901.383C1773.35 900.612 1772.66 899.858 1772.27 899.121L1772.12 898.718H1771.6C1771.43 899.154 1771.12 899.632 1770.67 900.151C1770.23 900.637 1769.71 901.056 1769.11 901.408C1768.45 901.793 1767.52 902.12 1766.32 902.388C1765.13 902.673 1763.84 902.815 1762.45 902.815C1759.45 902.815 1756.98 902.145 1755.03 900.805C1753.11 899.481 1752.14 897.495 1752.14 894.848ZM1762.45 894.119C1762.45 895.225 1763.89 895.778 1766.77 895.778C1769.65 895.778 1771.09 895.225 1771.09 894.119C1771.09 893.03 1769.65 892.486 1766.77 892.486C1763.89 892.486 1762.45 893.03 1762.45 894.119ZM1797.37 902.815C1794.07 902.815 1791.31 901.659 1789.1 899.347C1786.89 897.035 1785.79 893.734 1785.79 889.444C1785.79 885.155 1786.89 881.854 1789.1 879.542C1791.31 877.23 1794.07 876.074 1797.37 876.074C1799.18 876.074 1800.81 876.325 1802.25 876.828C1803.67 877.364 1804.63 877.883 1805.14 878.386L1805.92 879.14H1806.37V866.272H1816.67V902.312H1806.37V897.688H1805.87C1805.6 898.274 1805.23 898.869 1804.76 899.472C1804.24 900.092 1803.71 900.603 1803.18 901.006C1802.52 901.508 1801.67 901.936 1800.61 902.287C1799.57 902.639 1798.49 902.815 1797.37 902.815ZM1797.87 886.253C1797.02 887.04 1796.59 888.104 1796.59 889.444C1796.59 890.785 1797.01 891.849 1797.85 892.636C1798.69 893.424 1799.9 893.818 1801.49 893.818C1803.05 893.818 1804.25 893.432 1805.09 892.661C1805.94 891.874 1806.37 890.802 1806.37 889.444C1806.37 888.071 1805.94 886.998 1805.09 886.227C1804.23 885.457 1803.03 885.071 1801.49 885.071C1799.92 885.071 1798.71 885.465 1797.87 886.253ZM1558.94 938.033C1556.4 935.607 1555.13 932.196 1555.13 927.797C1555.13 923.386 1556.4 919.968 1558.94 917.543C1561.48 915.118 1564.96 913.905 1569.38 913.905C1573.53 913.905 1576.88 914.936 1579.43 916.996C1581.97 919.045 1583.23 921.747 1583.23 925.102H1574.43C1574.43 924.762 1574.31 924.298 1574.07 923.707C1573.9 923.267 1573.64 922.859 1573.3 922.482C1572.94 922.105 1572.41 921.784 1571.72 921.52C1571.03 921.256 1570.25 921.124 1569.38 921.124C1565.8 921.124 1564.01 923.349 1564.01 927.797C1564.01 932.258 1565.8 934.489 1569.38 934.489C1570.27 934.489 1571.06 934.357 1571.74 934.093C1572.43 933.829 1572.95 933.49 1573.3 933.075C1573.97 932.321 1574.33 931.592 1574.39 930.889L1574.43 930.512H1583.23C1583.23 933.854 1581.97 936.55 1579.43 938.598C1576.88 940.659 1573.53 941.689 1569.38 941.689C1564.97 941.689 1561.49 940.471 1558.94 938.033ZM1588.52 939.145C1586.42 937.448 1585.38 934.954 1585.38 931.661C1585.38 928.369 1586.42 925.875 1588.52 924.178C1590.61 922.482 1593.42 921.633 1596.97 921.633C1600.5 921.633 1603.31 922.482 1605.39 924.178C1607.49 925.875 1608.54 928.369 1608.54 931.661C1608.54 934.954 1607.49 937.448 1605.39 939.145C1603.31 940.841 1600.5 941.689 1596.97 941.689C1593.42 941.689 1590.61 940.841 1588.52 939.145ZM1599.74 934.3C1600.38 933.647 1600.7 932.767 1600.7 931.661C1600.7 930.556 1600.38 929.67 1599.74 929.004C1599.1 928.35 1598.17 928.023 1596.97 928.023C1595.75 928.023 1594.82 928.35 1594.18 929.004C1593.54 929.67 1593.22 930.556 1593.22 931.661C1593.22 932.767 1593.54 933.647 1594.18 934.3C1594.82 934.966 1595.75 935.299 1596.97 935.299C1598.17 935.299 1599.1 934.966 1599.74 934.3ZM1634.19 941.312H1626.48V932.001C1626.48 930.907 1626.15 930.034 1625.5 929.381C1624.84 928.715 1623.95 928.382 1622.8 928.382C1621.63 928.382 1620.73 928.708 1620.09 929.362C1619.46 930.003 1619.15 930.882 1619.15 932.001V941.312H1611.42V922.01H1619.15V925.479H1619.52C1619.61 925.177 1619.9 924.725 1620.39 924.122C1620.73 923.707 1621.14 923.324 1621.63 922.972C1622.17 922.607 1622.88 922.293 1623.74 922.029C1624.61 921.765 1625.52 921.633 1626.48 921.633C1628.87 921.633 1630.75 922.306 1632.13 923.65C1633.5 925.008 1634.19 927.037 1634.19 929.739V941.312ZM1652.6 922.783V928.57H1647.17V941.312H1639.44V928.57H1635.93V924.329L1639.44 922.783V922.312C1639.44 919.447 1640.28 917.329 1641.96 915.96C1643.66 914.59 1646.29 913.905 1649.86 913.905C1650.67 913.905 1651.44 913.98 1652.18 914.131C1652.93 914.269 1653.5 914.427 1653.88 914.603L1654.35 914.866V920.691C1653.47 920.151 1652.44 919.88 1651.26 919.88C1648.53 919.88 1647.17 920.798 1647.17 922.632V922.783H1652.6Z" fill="white"/>
<path d="M1565.72 964.312H1554.1V961.788C1554.1 961.196 1554.24 960.671 1554.52 960.213C1554.79 959.75 1555.17 959.378 1555.63 959.096C1556.44 958.615 1557.48 958.199 1558.77 957.847C1559.14 957.747 1559.45 957.659 1559.7 957.583C1559.96 957.501 1560.23 957.398 1560.51 957.275C1560.8 957.152 1561.02 957.026 1561.19 956.897C1561.36 956.768 1561.51 956.613 1561.62 956.431C1561.73 956.249 1561.78 956.053 1561.78 955.841C1561.78 955.085 1561.22 954.707 1560.09 954.707C1558.96 954.707 1558.4 955.205 1558.4 956.202V956.871H1554.43V956.202C1554.43 954.572 1554.89 953.381 1555.82 952.631C1556.74 951.892 1558.16 951.522 1560.09 951.522C1561.99 951.522 1563.41 951.877 1564.34 952.587C1565.28 953.296 1565.74 954.381 1565.74 955.841C1565.74 956.657 1565.5 957.375 1565.02 957.997C1564.55 958.612 1563.96 959.084 1563.25 959.413C1562.6 959.718 1561.91 959.988 1561.19 960.222C1560.59 960.416 1560 960.6 1559.44 960.776C1558.95 960.935 1558.7 961.093 1558.7 961.251H1565.72V964.312ZM1577.89 953.264C1578.98 954.431 1579.53 956.012 1579.53 958.005C1579.53 960.005 1578.98 961.583 1577.89 962.738C1576.79 963.905 1575.26 964.488 1573.31 964.488C1571.37 964.488 1569.84 963.905 1568.75 962.738C1567.64 961.571 1567.09 959.993 1567.09 958.005C1567.09 956.017 1567.64 954.437 1568.75 953.264C1569.85 952.103 1571.37 951.522 1573.31 951.522C1575.26 951.522 1576.79 952.103 1577.89 953.264ZM1573.31 954.891C1571.93 954.891 1571.24 955.929 1571.24 958.005C1571.24 960.087 1571.93 961.128 1573.31 961.128C1574.69 961.128 1575.38 960.087 1575.38 958.005C1575.38 955.929 1574.69 954.891 1573.31 954.891ZM1592.41 964.312H1580.79V961.788C1580.79 961.196 1580.92 960.671 1581.2 960.213C1581.47 959.75 1581.85 959.378 1582.32 959.096C1583.12 958.615 1584.16 958.199 1585.45 957.847C1585.82 957.747 1586.13 957.659 1586.38 957.583C1586.64 957.501 1586.91 957.398 1587.19 957.275C1587.48 957.152 1587.71 957.026 1587.88 956.897C1588.05 956.768 1588.19 956.613 1588.3 956.431C1588.41 956.249 1588.46 956.053 1588.46 955.841C1588.46 955.085 1587.9 954.707 1586.78 954.707C1585.64 954.707 1585.08 955.205 1585.08 956.202V956.871H1581.11V956.202C1581.11 954.572 1581.57 953.381 1582.5 952.631C1583.42 951.892 1584.84 951.522 1586.77 951.522C1588.67 951.522 1590.09 951.877 1591.02 952.587C1591.96 953.296 1592.42 954.381 1592.42 955.841C1592.42 956.657 1592.18 957.375 1591.7 957.997C1591.23 958.612 1590.64 959.084 1589.93 959.413C1589.28 959.718 1588.59 959.988 1587.88 960.222C1587.27 960.416 1586.68 960.6 1586.12 960.776C1585.63 960.935 1585.39 961.093 1585.39 961.251H1592.41V964.312ZM1600.49 955.841C1601.98 955.841 1603.15 956.179 1604 956.853C1604.85 957.533 1605.27 958.571 1605.27 959.967C1605.27 961.451 1604.79 962.577 1603.84 963.345C1602.89 964.107 1601.48 964.488 1599.61 964.488C1597.77 964.488 1596.36 964.131 1595.4 963.415C1594.44 962.7 1593.96 961.676 1593.96 960.345H1597.92C1597.91 960.357 1597.91 960.389 1597.92 960.442C1597.93 960.495 1597.96 960.571 1598.02 960.671C1598.08 960.765 1598.16 960.853 1598.27 960.935C1598.57 961.146 1599.02 961.251 1599.61 961.251C1600.18 961.251 1600.61 961.146 1600.89 960.935C1601.17 960.718 1601.31 960.395 1601.3 959.967C1601.3 959.533 1601.15 959.205 1600.86 958.982C1600.56 958.753 1600.14 958.639 1599.61 958.639C1599.05 958.639 1598.63 958.709 1598.37 958.85C1598.14 958.973 1598 959.087 1597.96 959.193L1597.92 959.272H1593.96V951.698H1604.41V954.768H1597.81V956.387H1597.9C1597.95 956.34 1598.03 956.29 1598.14 956.237C1598.24 956.179 1598.51 956.097 1598.96 955.991C1599.43 955.891 1599.94 955.841 1600.49 955.841Z" fill="#FFD000"/>
</svg>
