<svg width="1920" height="1080" viewBox="0 0 1920 1080" fill="none" xmlns="http://www.w3.org/2000/svg">
<rect width="1920" height="1080" fill="white"/>
<circle cx="1851.35" cy="82.7709" r="39.0865" stroke="#838383" stroke-width="4"/>
<path d="M1869.98 1024.6C1864.4 1024.6 1858.92 1025.9 1853.93 1028.39C1848.95 1030.89 1844.63 1034.53 1841.3 1039L1880.6 1026.21C1877.16 1025.13 1873.58 1024.59 1869.98 1024.6Z" fill="#00F2FF"/>
<path d="M1820.58 992.43C1825.11 989.19 1828.82 984.945 1831.43 980.016C1834.03 975.087 1835.43 969.617 1835.54 964.042L1811 997.3C1814.42 996.175 1817.65 994.533 1820.58 992.43Z" fill="#00F2FF"/>
<path d="M1820.58 1010.57C1825.11 1013.81 1828.82 1018.05 1831.43 1022.98C1834.03 1027.91 1835.43 1033.38 1835.54 1038.96L1811 1005.7C1814.42 1006.83 1817.65 1008.47 1820.58 1010.57Z" fill="#FFD000"/>
<path d="M1870.58 978.4C1874.18 978.4 1877.75 977.868 1881.2 976.803L1841.9 964C1845.23 968.471 1849.56 972.11 1854.54 974.606C1859.53 977.103 1865.02 978.41 1870.59 978.4L1870.58 978.4Z" fill="#FFD000"/>
<path d="M1860.5 1001.21L1843.7 1026.7L1852.67 1003.96C1853.36 1002.19 1853.36 1000.22 1852.67 998.455L1843.7 975.7L1860.5 1001.21Z" fill="#000348"/>
<path d="M1878.2 1019.5L1870.13 1004.82C1868.89 1002.57 1868.89 999.842 1870.12 997.591L1878.2 982.9L1860.5 1001.21L1878.2 1019.5Z" fill="#000348"/>
<path fill-rule="evenodd" clip-rule="evenodd" d="M1879.82 996.25C1878.95 1001.76 1879.43 1007.38 1881.24 1012.68C1882.35 1015.96 1883.95 1019.07 1886 1021.9L1886 981.361C1882.79 985.816 1880.67 990.901 1879.82 996.25Z" fill="#00F2FF"/>
<path d="M1841.79 994.994L1841.79 987.182L1845.5 987.182L1845.5 999.523L1831.1 999.523L1831.1 994.994L1841.79 994.994Z" fill="#000348"/>
<path d="M1834.81 1009.43L1834.81 1014.1L1831.1 1014.1L1831.1 1000.24L1834.81 1000.24L1834.81 1004.91L1845.5 1004.91L1845.5 1009.43L1834.81 1009.43Z" fill="#000348"/>
<path d="M1825.41 934.235L1825.41 941.046L1820 941.046L1820 920.831L1825.41 920.831L1825.41 927.643L1841.01 927.643L1841.01 934.235L1825.41 934.235ZM1833.51 904.768L1834.4 904.856L1834.4 916.443C1835.39 916.424 1836.11 916.204 1836.57 915.784C1837.03 915.354 1837.26 914.685 1837.26 913.777C1837.26 913.279 1837.15 912.835 1836.94 912.444C1836.72 912.054 1836.49 911.795 1836.24 911.668L1835.91 911.492L1835.91 905.105C1836.16 905.105 1836.51 905.193 1836.97 905.369C1837.81 905.701 1838.54 906.204 1839.18 906.878C1839.63 907.347 1840 907.874 1840.29 908.46C1840.59 909.036 1840.83 909.768 1841.01 910.657C1841.21 911.614 1841.3 912.654 1841.3 913.777C1841.3 916.512 1840.65 918.694 1839.34 920.325C1838.03 921.956 1836.09 922.771 1833.51 922.771C1830.95 922.771 1829.01 921.956 1827.7 920.325C1826.38 918.704 1825.72 916.516 1825.72 913.763C1825.72 911.018 1826.38 908.836 1827.7 907.215C1829.01 905.584 1830.95 904.768 1833.51 904.768ZM1829.61 913.777C1829.61 914.539 1829.82 915.144 1830.23 915.594C1830.64 916.043 1831.13 916.267 1831.71 916.267L1831.71 911.375C1831.16 911.375 1830.67 911.59 1830.24 912.019C1829.82 912.439 1829.61 913.025 1829.61 913.777ZM1839.33 900.981C1838.01 902.612 1836.07 903.427 1833.51 903.427C1830.95 903.427 1829.01 902.612 1827.7 900.981C1826.38 899.35 1825.72 897.167 1825.72 894.433C1825.72 891.865 1826.28 889.736 1827.4 888.046C1828.54 886.357 1830.17 885.512 1832.31 885.512L1832.31 892.031C1831.41 892.343 1830.96 893.144 1830.96 894.433C1830.96 895.253 1831.2 895.908 1831.66 896.396C1832.13 896.884 1832.75 897.128 1833.51 897.128C1834.27 897.128 1834.89 896.884 1835.36 896.396C1835.83 895.908 1836.06 895.253 1836.06 894.433C1836.06 893.144 1835.61 892.343 1834.71 892.031L1834.71 885.512C1836.84 885.512 1838.47 886.357 1839.6 888.046C1840.74 889.755 1841.3 891.884 1841.3 894.433C1841.3 897.167 1840.64 899.35 1839.33 900.981ZM1841.01 865.729L1841.01 871.72L1833.77 871.72C1832.92 871.72 1832.25 871.974 1831.74 872.482C1831.22 872.989 1830.96 873.688 1830.96 874.576C1830.96 875.484 1831.22 876.188 1831.72 876.686C1832.22 877.174 1832.91 877.418 1833.77 877.418L1841.01 877.418L1841.01 883.424L1820 883.424L1820 877.418L1828.71 877.418L1828.71 877.125C1828.47 877.057 1828.12 876.832 1827.65 876.451C1827.33 876.188 1827.03 875.865 1826.76 875.484C1826.47 875.065 1826.23 874.518 1826.03 873.844C1825.82 873.17 1825.72 872.462 1825.72 871.72C1825.72 869.864 1826.24 868.4 1827.29 867.325C1828.34 866.261 1829.92 865.729 1832.02 865.729L1841.01 865.729ZM1835.61 856.126L1835.61 844.729L1841.01 844.729L1841.01 862.732L1820 862.732L1820 856.126L1835.61 856.126ZM1833.51 827.04L1834.4 827.128L1834.4 838.715C1835.39 838.696 1836.11 838.476 1836.57 838.056C1837.03 837.626 1837.26 836.957 1837.26 836.049C1837.26 835.551 1837.15 835.107 1836.94 834.716C1836.72 834.325 1836.49 834.067 1836.24 833.94L1835.91 833.764L1835.91 827.377C1836.16 827.377 1836.51 827.465 1836.97 827.641C1837.81 827.973 1838.54 828.476 1839.18 829.15C1839.63 829.618 1840 830.146 1840.29 830.732C1840.59 831.308 1840.83 832.04 1841.01 832.929C1841.21 833.886 1841.3 834.926 1841.3 836.049C1841.3 838.784 1840.65 840.966 1839.34 842.597C1838.03 844.228 1836.09 845.043 1833.51 845.043C1830.95 845.043 1829.01 844.228 1827.7 842.597C1826.38 840.976 1825.72 838.788 1825.72 836.034C1825.72 833.29 1826.38 831.108 1827.7 829.487C1829.01 827.856 1830.95 827.04 1833.51 827.04ZM1829.61 836.049C1829.61 836.811 1829.82 837.416 1830.23 837.866C1830.64 838.315 1831.13 838.539 1831.71 838.539L1831.71 833.647C1831.16 833.647 1830.67 833.862 1830.24 834.291C1829.82 834.711 1829.61 835.297 1829.61 836.049ZM1836.66 825.553C1835.08 825.553 1833.91 824.942 1833.14 823.722C1832.39 822.501 1832.02 820.909 1832.02 818.946C1832.02 817.96 1832.1 817.081 1832.27 816.309C1832.42 815.567 1832.6 815.079 1832.79 814.845L1833.03 814.508L1831.11 814.508C1830.66 814.508 1830.32 814.654 1830.1 814.947C1829.87 815.23 1829.76 815.733 1829.76 816.456C1829.76 817.774 1830.21 818.434 1831.11 818.434L1831.11 824.747C1829.34 824.747 1828 824.039 1827.09 822.623C1826.18 821.197 1825.72 819.142 1825.72 816.456C1825.72 813.761 1826.15 811.764 1827.02 810.465C1827.89 809.166 1829.25 808.517 1831.11 808.517L1834.86 808.517C1835.33 808.517 1835.65 808.463 1835.84 808.355C1836.03 808.238 1836.12 808.038 1836.12 807.755L1836.06 807.315L1841.01 807.315C1841.21 807.765 1841.3 808.56 1841.3 809.703C1841.3 810.953 1841.03 811.925 1840.47 812.618C1840.02 813.194 1839.58 813.595 1839.15 813.819L1838.92 813.907L1838.92 814.215C1839.17 814.312 1839.45 814.493 1839.75 814.757C1840.03 815.011 1840.28 815.313 1840.48 815.665C1840.71 816.046 1840.9 816.588 1841.05 817.291C1841.22 817.984 1841.3 818.736 1841.3 819.547C1841.3 821.295 1840.91 822.735 1840.13 823.868C1839.36 824.991 1838.2 825.553 1836.66 825.553ZM1836.24 819.547C1836.88 819.547 1837.2 818.707 1837.2 817.027C1837.2 815.348 1836.88 814.508 1836.24 814.508C1835.6 814.508 1835.28 815.348 1835.28 817.027C1835.28 818.707 1835.6 819.547 1836.24 819.547ZM1841.3 799.192C1841.3 801.116 1840.63 802.722 1839.28 804.011C1837.93 805.3 1836.01 805.945 1833.51 805.945C1831.01 805.945 1829.09 805.3 1827.74 804.011C1826.39 802.722 1825.72 801.116 1825.72 799.192C1825.72 798.137 1825.86 797.19 1826.16 796.35C1826.47 795.52 1826.77 794.959 1827.07 794.666L1827.5 794.211L1827.5 793.948L1820 793.948L1820 787.942L1841.01 787.942L1841.01 793.948L1838.32 793.948L1838.32 794.241C1838.66 794.397 1839 794.612 1839.36 794.885C1839.72 795.188 1840.01 795.496 1840.25 795.808C1840.54 796.189 1840.79 796.687 1841 797.302C1841.2 797.908 1841.3 798.538 1841.3 799.192ZM1831.65 798.899C1832.11 799.397 1832.73 799.646 1833.51 799.646C1834.29 799.646 1834.91 799.402 1835.37 798.914C1835.83 798.425 1836.06 797.717 1836.06 796.79C1836.06 795.881 1835.83 795.183 1835.39 794.695C1834.93 794.197 1834.3 793.948 1833.51 793.948C1832.71 793.948 1832.08 794.197 1831.64 794.695C1831.19 795.193 1830.96 795.891 1830.96 796.79C1830.96 797.708 1831.19 798.411 1831.65 798.899ZM1861.1 938.16C1859.69 939.64 1857.7 940.38 1855.13 940.38C1852.56 940.38 1850.57 939.64 1849.16 938.16C1847.74 936.681 1847.04 934.652 1847.04 932.074C1847.04 929.657 1847.64 927.705 1848.84 926.218C1850.03 924.739 1851.61 923.999 1853.56 923.999L1853.56 929.13C1853.36 929.13 1853.09 929.199 1852.75 929.338C1852.49 929.441 1852.26 929.591 1852.04 929.789C1851.82 930.001 1851.63 930.309 1851.47 930.712C1851.32 931.115 1851.24 931.569 1851.24 932.074C1851.24 934.161 1852.54 935.205 1855.13 935.205C1857.73 935.205 1859.03 934.161 1859.03 932.074C1859.03 931.554 1858.96 931.096 1858.8 930.701C1858.65 930.298 1858.45 929.994 1858.21 929.789C1857.77 929.401 1857.35 929.188 1856.94 929.152L1856.72 929.13L1856.72 923.999C1858.66 923.999 1860.23 924.739 1861.43 926.218C1862.63 927.705 1863.23 929.657 1863.23 932.074C1863.23 934.645 1862.52 936.674 1861.1 938.16ZM1861.75 920.917C1860.76 922.14 1859.3 922.751 1857.39 922.751C1855.47 922.751 1854.01 922.14 1853.02 920.917C1852.04 919.701 1851.54 918.06 1851.54 915.995C1851.54 913.937 1852.04 912.3 1853.02 911.084C1854.01 909.861 1855.47 909.249 1857.39 909.249C1859.3 909.249 1860.76 909.861 1861.75 911.084C1862.74 912.3 1863.23 913.937 1863.23 915.995C1863.23 918.06 1862.74 919.701 1861.75 920.917ZM1858.92 914.38C1858.54 914.006 1858.03 913.82 1857.39 913.82C1856.74 913.82 1856.22 914.006 1855.84 914.38C1855.46 914.753 1855.27 915.292 1855.27 915.995C1855.27 916.705 1855.46 917.247 1855.84 917.621C1856.22 917.994 1856.74 918.181 1857.39 918.181C1858.03 918.181 1858.54 917.994 1858.92 917.621C1859.31 917.247 1859.51 916.705 1859.51 915.995C1859.51 915.292 1859.31 914.753 1858.92 914.38ZM1863.01 894.302L1863.01 898.795L1857.58 898.795C1856.95 898.795 1856.44 898.986 1856.06 899.366C1855.67 899.747 1855.47 900.271 1855.47 900.937C1855.47 901.619 1855.66 902.146 1856.05 902.519C1856.42 902.886 1856.93 903.069 1857.58 903.069L1863.01 903.069L1863.01 907.573L1851.76 907.573L1851.76 903.069L1853.78 903.069L1853.78 902.849C1853.61 902.798 1853.34 902.629 1852.99 902.344C1852.75 902.146 1852.53 901.904 1852.32 901.619C1852.11 901.304 1851.93 900.893 1851.77 900.388C1851.62 899.883 1851.54 899.352 1851.54 898.795C1851.54 897.403 1851.93 896.305 1852.72 895.499C1853.51 894.701 1854.69 894.302 1856.27 894.302L1863.01 894.302ZM1852.21 883.573L1855.58 883.573L1855.58 886.737L1863.01 886.737L1863.01 891.241L1855.58 891.241L1855.58 893.285L1853.11 893.285L1852.21 891.241L1851.94 891.241C1850.27 891.241 1849.03 890.751 1848.23 889.769C1847.44 888.78 1847.04 887.246 1847.04 885.166C1847.04 884.697 1847.08 884.247 1847.17 883.815C1847.25 883.375 1847.34 883.046 1847.44 882.826L1847.6 882.551L1850.99 882.551C1850.68 883.064 1850.52 883.664 1850.52 884.353C1850.52 885.942 1851.05 886.737 1852.12 886.737L1852.21 886.737L1852.21 883.573Z" fill="#000348"/>
<path d="M1876.01 934.205L1876.01 940.977L1874.54 940.977C1874.19 940.977 1873.89 940.897 1873.62 940.736C1873.35 940.576 1873.13 940.359 1872.97 940.085C1872.69 939.617 1872.45 939.009 1872.24 938.26C1872.18 938.045 1872.13 937.864 1872.09 937.717C1872.04 937.566 1871.98 937.409 1871.91 937.245C1871.84 937.077 1871.76 936.944 1871.69 936.845C1871.61 936.746 1871.52 936.664 1871.42 936.599C1871.31 936.534 1871.2 936.501 1871.07 936.501C1870.63 936.501 1870.41 936.83 1870.41 937.486C1870.41 938.146 1870.7 938.475 1871.28 938.475L1871.67 938.475L1871.67 940.788L1871.28 940.788C1870.33 940.788 1869.64 940.518 1869.2 939.978C1868.77 939.441 1868.56 938.612 1868.56 937.491C1868.56 936.38 1868.76 935.553 1869.18 935.01C1869.59 934.466 1870.22 934.194 1871.07 934.194C1871.55 934.194 1871.97 934.334 1872.33 934.615C1872.69 934.892 1872.96 935.235 1873.15 935.645C1873.33 936.028 1873.49 936.428 1873.63 936.845C1873.74 937.197 1873.85 937.539 1873.95 937.87C1874.04 938.154 1874.13 938.296 1874.23 938.296L1874.23 934.205L1876.01 934.205ZM1869.57 927.116C1870.25 926.477 1871.17 926.158 1872.33 926.158C1873.5 926.158 1874.42 926.477 1875.09 927.116C1875.77 927.755 1876.11 928.644 1876.11 929.782C1876.11 930.917 1875.77 931.804 1875.09 932.443C1874.41 933.086 1873.49 933.407 1872.33 933.407C1871.18 933.407 1870.25 933.086 1869.57 932.443C1868.89 931.801 1868.56 930.914 1868.56 929.782C1868.56 928.644 1868.89 927.755 1869.57 927.116ZM1870.52 929.782C1870.52 930.589 1871.12 930.992 1872.33 930.992C1873.55 930.992 1874.15 930.589 1874.15 929.782C1874.15 928.979 1873.55 928.577 1872.33 928.577C1871.12 928.577 1870.52 928.979 1870.52 929.782ZM1876.01 918.654L1876.01 925.427L1874.54 925.427C1874.19 925.427 1873.89 925.346 1873.62 925.186C1873.35 925.025 1873.13 924.808 1872.97 924.535C1872.69 924.066 1872.45 923.458 1872.24 922.709C1872.18 922.494 1872.13 922.313 1872.09 922.166C1872.04 922.016 1871.98 921.858 1871.91 921.694C1871.84 921.527 1871.76 921.393 1871.69 921.294C1871.61 921.195 1871.52 921.113 1871.42 921.048C1871.31 920.983 1871.2 920.951 1871.07 920.951C1870.63 920.951 1870.41 921.279 1870.41 921.935C1870.41 922.595 1870.7 922.925 1871.28 922.925L1871.67 922.925L1871.67 925.237L1871.28 925.237C1870.33 925.237 1869.64 924.967 1869.2 924.427C1868.77 923.89 1868.56 923.061 1868.56 921.94C1868.56 920.829 1868.76 920.002 1869.18 919.459C1869.59 918.915 1870.22 918.644 1871.07 918.644C1871.55 918.644 1871.97 918.784 1872.33 919.064C1872.69 919.341 1872.96 919.684 1873.15 920.095C1873.33 920.477 1873.49 920.877 1873.63 921.294C1873.74 921.646 1873.85 921.988 1873.95 922.32C1874.04 922.603 1874.13 922.745 1874.23 922.745L1874.23 918.654L1876.01 918.654ZM1871.07 913.939C1871.07 913.071 1871.27 912.389 1871.66 911.894C1872.06 911.402 1872.66 911.155 1873.48 911.155C1874.34 911.155 1875 911.434 1875.45 911.991C1875.89 912.545 1876.11 913.365 1876.11 914.452C1876.11 915.529 1875.9 916.347 1875.49 916.908C1875.07 917.468 1874.47 917.749 1873.7 917.749L1873.7 915.442C1873.71 915.445 1873.72 915.445 1873.75 915.442C1873.79 915.435 1873.83 915.414 1873.89 915.38C1873.94 915.346 1873.99 915.298 1874.04 915.237C1874.16 915.062 1874.23 914.801 1874.23 914.452C1874.23 914.121 1874.16 913.873 1874.04 913.709C1873.92 913.545 1873.73 913.464 1873.48 913.468C1873.22 913.468 1873.03 913.555 1872.9 913.729C1872.77 913.904 1872.7 914.144 1872.7 914.452C1872.7 914.784 1872.74 915.026 1872.83 915.18C1872.9 915.313 1872.97 915.392 1873.03 915.416L1873.07 915.442L1873.07 917.749L1868.66 917.749L1868.66 911.658L1870.45 911.658L1870.45 915.503L1871.39 915.503L1871.39 915.452C1871.36 915.421 1871.33 915.375 1871.3 915.313C1871.27 915.255 1871.22 915.095 1871.16 914.831C1871.1 914.561 1871.07 914.264 1871.07 913.939Z" fill="#FFD000"/>
</svg>
